# xmcd
#
# Track frame offsets:
#	150
#	21149
#	38492
#	52471
#	69605
#	84119
#	96565
#	110476
#	124283
#	138882
#	154834
#	168058
#	182244
#	197781
#	219811
#
# Disc length: 3134 seconds
#
# Revision: 1
# Processed by: cddbd v1.5.2PL0 Copyright (c) Steve Scherf et al.
# Submitted via: audiograbber 1.83.01
#
DISCID=ce0c3c0f
DTITLE=Various Artist - A Whole Lotta Country Volume 1
DYEAR=1900
DGENRE=
TTITLE0=The Highwaymen - The Road Goes On Forever (The Highwaymen)
TTITLE1=Felicity (With Clint Beattie) - Early Hours (Felicity with Clint Beatti
TTITLE1=e)
TTITLE2=The Band - Georgia On My Mind (The Band)
TTITLE3=Billy Crash Craddock - (You Say You're) A Real Cowboy (Billy Crash Crad
TTITLE3=dock)
TTITLE4=Chris LeDoux - Call Of The Wild (Chris LeDoux)
TTITLE5=Glen Campbell and Rita Coolidge - Somethin' 'Bout You Baby I Like (Glen C
TTITLE5=ampbell and Rita Coolidge)
TTITLE6=Asleep At The Wheel - Miles And Miles Of Texas (Asleep At The Wheel)
TTITLE7=Crystal Gayle - River Road (Crystal Gayle)
TTITLE8=Keith Urban - Arms Of Mary (Keith Urban)
TTITLE9=Eddie Rabbitt - Lonely Out Tonight (Eddie Rabbitt)
TTITLE10=Suzy Bogguss - I Don't Want To Set The World On Fire (Suzy Bogguss)
TTITLE11=Dr Hook - A Couple More Years (Dr Hook)
TTITLE12=Tanya Tucker - Shotgun (Tanya Tucker)
TTITLE13=Dan Seals - Everything That Glitters (Is Not Gold) (Dan Seals)
TTITLE14=Nitty Gritty Dirt Band - Jambalaya (On The Bayou) (Nitty Gritty Dirt B
TTITLE14=and)
EXTD=
EXTT0=
EXTT1=
EXTT2=
EXTT3=
EXTT4=
EXTT5=
EXTT6=
EXTT7=
EXTT8=
EXTT9=
EXTT10=
EXTT11=
EXTT12=
EXTT13=
EXTT14=
PLAYORDER=
